<svg xmlns="http://www.w3.org/2000/svg" width="1200" height="630" viewBox="0 0 1200 630" role="img" aria-labelledby="title desc">
  <title id="title">AutoOutlook embed thumbnail</title>
  <desc id="desc">Retro severe-weather outlook dashboard thumbnail for AutoOutlook.</desc>
  <defs>
    <pattern id="dots" width="18" height="18" patternUnits="userSpaceOnUse">
      <circle cx="1" cy="1" r="1" fill="#111111" opacity="0.12"/>
    </pattern>
    <pattern id="scan" width="1" height="8" patternUnits="userSpaceOnUse">
      <rect width="1" height="1" fill="#111111" opacity="0.08"/>
    </pattern>
  </defs>
  <rect width="1200" height="630" fill="#f5f0e6"/>
  <rect width="1200" height="630" fill="url(#dots)"/>
  <rect x="34" y="34" width="1132" height="562" fill="#111111"/>
  <rect x="24" y="24" width="1132" height="562" fill="#f5f0e6" stroke="#111111" stroke-width="8"/>
  <rect x="24" y="24" width="1132" height="562" fill="url(#scan)" opacity="0.6"/>

  <rect x="60" y="58" width="170" height="54" fill="#f5f0e6" stroke="#111111" stroke-width="5"/>
  <text x="86" y="91" font-family="JetBrains Mono, Consolas, monospace" font-size="18" font-weight="700" letter-spacing="8" fill="#111111">AO/01</text>

  <text x="60" y="210" font-family="Space Grotesk, Arial, sans-serif" font-size="104" font-weight="800" letter-spacing="-1" fill="#111111">AUTO</text>
  <text x="60" y="305" font-family="Space Grotesk, Arial, sans-serif" font-size="104" font-weight="800" letter-spacing="-1" fill="#f5b800">OUTLOOK</text>

  <rect x="64" y="348" width="650" height="64" fill="#111111"/>
  <text x="88" y="388" font-family="JetBrains Mono, Consolas, monospace" font-size="20" font-weight="700" letter-spacing="3" fill="#f5f0e6">CONVECTIVE RISK INTELLIGENCE</text>

  <rect x="64" y="442" width="650" height="82" fill="#f5f0e6" stroke="#111111" stroke-width="5"/>
  <text x="88" y="476" font-family="Inter, Arial, sans-serif" font-size="24" font-weight="700" fill="#111111">HRRR/XGBoost outlooks, hazard probabilities,</text>
  <text x="88" y="508" font-family="Inter, Arial, sans-serif" font-size="24" font-weight="700" fill="#111111">risk timelines, and operational readiness.</text>

  <g transform="translate(756 82)">
    <rect x="18" y="18" width="330" height="394" fill="#111111"/>
    <rect x="0" y="0" width="330" height="394" fill="#f5f0e6" stroke="#111111" stroke-width="6"/>
    <rect x="18" y="18" width="294" height="48" fill="#111111"/>
    <text x="34" y="50" font-family="JetBrains Mono, Consolas, monospace" font-size="18" font-weight="700" letter-spacing="3" fill="#f5f0e6">F043 OUTLOOK</text>
    <path d="M40 300 C72 246 102 220 148 212 C194 204 216 170 252 128 C268 170 290 192 284 236 C278 282 234 322 178 330 C118 338 76 326 40 300 Z" fill="#f5b800" stroke="#111111" stroke-width="5"/>
    <path d="M86 292 C110 262 140 248 174 244 C204 240 222 222 244 196 C254 226 248 252 226 274 C194 310 134 316 86 292 Z" fill="#ff6b2b" stroke="#111111" stroke-width="4"/>
    <path d="M134 286 C154 270 174 268 194 258 C204 276 194 294 170 300 C154 304 142 298 134 286 Z" fill="#d91920" stroke="#111111" stroke-width="4"/>
    <g stroke="#111111" stroke-width="3" fill="none" opacity="0.55">
      <path d="M38 96 C86 116 130 112 176 96 C220 80 254 82 292 102"/>
      <path d="M38 132 C90 150 134 148 184 132 C226 118 260 120 292 138"/>
      <path d="M38 348 C84 360 128 356 176 344 C220 332 260 336 292 356"/>
    </g>
    <rect x="30" y="338" width="78" height="28" fill="#a6f23d" stroke="#111111" stroke-width="3"/>
    <rect x="118" y="338" width="78" height="28" fill="#f5b800" stroke="#111111" stroke-width="3"/>
    <rect x="206" y="338" width="78" height="28" fill="#ff6b2b" stroke="#111111" stroke-width="3"/>
  </g>
</svg>
